<svg width="16" height="16" viewBox="0 0 16 16" fill="none" xmlns="http://www.w3.org/2000/svg">
<mask id="path-1-outside-1_10_899" maskUnits="userSpaceOnUse" x="1.66663" y="1.66666" width="12" height="12" fill="black">
<rect fill="white" x="1.66663" y="1.66666" width="12" height="12"/>
<path d="M3.74396 13.3333C3.43685 13.3333 3.18063 13.2307 2.97529 13.0253C2.76996 12.82 2.66707 12.5635 2.66663 12.256V3.74399C2.66663 3.43688 2.76951 3.18066 2.97529 2.97532C3.18107 2.76999 3.43729 2.6671 3.74396 2.66666H12.2566C12.5633 2.66666 12.8195 2.76955 13.0253 2.97532C13.2311 3.1811 13.3337 3.43732 13.3333 3.74399V12.2567C13.3333 12.5633 13.2306 12.8195 13.0253 13.0253C12.82 13.2311 12.5635 13.3338 12.256 13.3333H3.74396ZM3.74396 12.6667H7.66663V3.33332H3.74396C3.64129 3.33332 3.54707 3.37599 3.46129 3.46132C3.37551 3.54666 3.33285 3.64088 3.33329 3.74399V12.2567C3.33329 12.3589 3.37596 12.4529 3.46129 12.5387C3.54663 12.6244 3.64063 12.6671 3.74329 12.6667M8.33329 12.6667H12.2566C12.3588 12.6667 12.4528 12.624 12.5386 12.5387C12.6244 12.4533 12.6671 12.3591 12.6666 12.256V7.99999H8.33329V12.6667ZM8.33329 7.33332H12.6666V3.74399C12.6666 3.64132 12.624 3.5471 12.5386 3.46132C12.4533 3.37555 12.3591 3.33288 12.256 3.33332H8.33329V7.33332Z"/>
</mask>
<path d="M3.74396 13.3333C3.43685 13.3333 3.18063 13.2307 2.97529 13.0253C2.76996 12.82 2.66707 12.5635 2.66663 12.256V3.74399C2.66663 3.43688 2.76951 3.18066 2.97529 2.97532C3.18107 2.76999 3.43729 2.6671 3.74396 2.66666H12.2566C12.5633 2.66666 12.8195 2.76955 13.0253 2.97532C13.2311 3.1811 13.3337 3.43732 13.3333 3.74399V12.2567C13.3333 12.5633 13.2306 12.8195 13.0253 13.0253C12.82 13.2311 12.5635 13.3338 12.256 13.3333H3.74396ZM3.74396 12.6667H7.66663V3.33332H3.74396C3.64129 3.33332 3.54707 3.37599 3.46129 3.46132C3.37551 3.54666 3.33285 3.64088 3.33329 3.74399V12.2567C3.33329 12.3589 3.37596 12.4529 3.46129 12.5387C3.54663 12.6244 3.64063 12.6671 3.74329 12.6667M8.33329 12.6667H12.2566C12.3588 12.6667 12.4528 12.624 12.5386 12.5387C12.6244 12.4533 12.6671 12.3591 12.6666 12.256V7.99999H8.33329V12.6667ZM8.33329 7.33332H12.6666V3.74399C12.6666 3.64132 12.624 3.5471 12.5386 3.46132C12.4533 3.37555 12.3591 3.33288 12.256 3.33332H8.33329V7.33332Z" fill="#5A5A62"/>
<path d="M2.66663 12.256H2.46663L2.46663 12.2563L2.66663 12.256ZM3.74396 2.66666V2.46666L3.74367 2.46666L3.74396 2.66666ZM13.3333 3.74399L13.1333 3.7437V3.74399H13.3333ZM12.256 13.3333L12.2562 13.1333H12.256V13.3333ZM7.66663 12.6667V12.8667H7.86663V12.6667H7.66663ZM7.66663 3.33332H7.86663V3.13332H7.66663V3.33332ZM3.33329 3.74399H3.53329L3.53329 3.74313L3.33329 3.74399ZM8.33329 12.6667H8.13329V12.8667H8.33329V12.6667ZM12.6666 12.256H12.4666L12.4666 12.2569L12.6666 12.256ZM12.6666 7.99999H12.8666V7.79999H12.6666V7.99999ZM8.33329 7.99999V7.79999H8.13329V7.99999H8.33329ZM8.33329 7.33332H8.13329V7.53332H8.33329V7.33332ZM12.6666 7.33332V7.53332H12.8666V7.33332H12.6666ZM12.256 3.33332V3.53333L12.2568 3.53332L12.256 3.33332ZM8.33329 3.33332V3.13332H8.13329V3.33332H8.33329ZM3.74396 13.1333C3.4865 13.1333 3.28221 13.0494 3.11671 12.8839L2.83387 13.1667C3.07905 13.4119 3.3872 13.5333 3.74396 13.5333V13.1333ZM3.11671 12.8839C2.9512 12.7184 2.867 12.5138 2.86663 12.2557L2.46663 12.2563C2.46714 12.6133 2.58871 12.9216 2.83387 13.1667L3.11671 12.8839ZM2.86663 12.256V3.74399H2.46663V12.256H2.86663ZM2.86663 3.74399C2.86663 3.48666 2.95068 3.28242 3.11656 3.1169L2.83402 2.83375C2.58835 3.07889 2.46663 3.38709 2.46663 3.74399H2.86663ZM3.11656 3.1169C3.28269 2.95112 3.48723 2.86703 3.74425 2.86666L3.74367 2.46666C3.38736 2.46717 3.07945 2.58885 2.83402 2.83375L3.11656 3.1169ZM3.74396 2.86666H12.2566V2.46666H3.74396V2.86666ZM12.2566 2.86666C12.5134 2.86666 12.7178 2.95066 12.8839 3.11674L13.1667 2.8339C12.9212 2.58843 12.6132 2.46666 12.2566 2.46666V2.86666ZM12.8839 3.11674C13.0499 3.28275 13.1337 3.487 13.1333 3.7437L13.5333 3.74428C13.5338 3.38765 13.4123 3.07945 13.1667 2.8339L12.8839 3.11674ZM13.1333 3.74399V12.2567H13.5333V3.74399H13.1333ZM13.1333 12.2567C13.1333 12.5136 13.0494 12.718 12.8837 12.8841L13.1669 13.1666C13.4118 12.9211 13.5333 12.6131 13.5333 12.2567H13.1333ZM12.8837 12.8841C12.7183 13.0498 12.514 13.1337 12.2562 13.1333L12.2557 13.5333C12.613 13.5338 12.9216 13.4124 13.1669 13.1666L12.8837 12.8841ZM12.256 13.1333H3.74396V13.5333H12.256V13.1333ZM3.74396 12.8667H7.66663V12.4667H3.74396V12.8667ZM7.86663 12.6667V3.33332H7.46663V12.6667H7.86663ZM7.66663 3.13332H3.74396V3.53332H7.66663V3.13332ZM3.74396 3.13332C3.57908 3.13332 3.4363 3.20408 3.32024 3.31953L3.60235 3.60311C3.65784 3.5479 3.70351 3.53332 3.74396 3.53332V3.13332ZM3.32024 3.31953C3.20363 3.43554 3.13258 3.57896 3.13329 3.74485L3.53329 3.74313C3.53312 3.7028 3.5474 3.65777 3.60235 3.60311L3.32024 3.31953ZM3.13329 3.74399V12.2567H3.53329V3.74399H3.13329ZM3.13329 12.2567C3.13329 12.4213 3.20424 12.5638 3.3195 12.6797L3.60308 12.3976C3.54768 12.3419 3.53329 12.2964 3.53329 12.2567H3.13329ZM3.3195 12.6797C3.43532 12.7961 3.57847 12.8674 3.74416 12.8667L3.74243 12.4667C3.70278 12.4668 3.65793 12.4527 3.60308 12.3976L3.3195 12.6797ZM8.33329 12.8667H12.2566V12.4667H8.33329V12.8667ZM12.2566 12.8667C12.4213 12.8667 12.5638 12.7957 12.6797 12.6804L12.3976 12.3969C12.3419 12.4523 12.2964 12.4667 12.2566 12.4667V12.8667ZM12.6797 12.6804C12.7963 12.5644 12.8673 12.421 12.8666 12.2551L12.4666 12.2569C12.4668 12.2972 12.4525 12.3422 12.3976 12.3969L12.6797 12.6804ZM12.8666 12.256V7.99999H12.4666V12.256H12.8666ZM12.6666 7.79999H8.33329V8.19999H12.6666V7.79999ZM8.13329 7.99999V12.6667H8.53329V7.99999H8.13329ZM8.33329 7.53332H12.6666V7.13332H8.33329V7.53332ZM12.8666 7.33332V3.74399H12.4666V7.33332H12.8666ZM12.8666 3.74399C12.8666 3.57911 12.7959 3.43633 12.6804 3.32027L12.3968 3.60238C12.452 3.65787 12.4666 3.70354 12.4666 3.74399H12.8666ZM12.6804 3.32027C12.5644 3.20366 12.421 3.13261 12.2551 3.13333L12.2568 3.53332C12.2972 3.53315 12.3422 3.54743 12.3968 3.60238L12.6804 3.32027ZM12.256 3.13332H8.33329V3.53332H12.256V3.13332ZM8.13329 3.33332V7.33332H8.53329V3.33332H8.13329Z" fill="#5A5A62" mask="url(#path-1-outside-1_10_899)"/>
</svg>
