<svg width="24" height="24" viewBox="0 0 24 24" fill="none" xmlns="http://www.w3.org/2000/svg">
<path fill-rule="evenodd" clip-rule="evenodd" d="M12 18.857C12.9011 18.8593 13.7937 18.6834 14.6267 18.3396C15.4596 17.9958 16.2164 17.4908 16.8536 16.8537C17.4908 16.2165 17.9958 15.4597 18.3396 14.6267C18.6834 13.7938 18.8592 12.9011 18.857 12C18.8592 11.0989 18.6834 10.2063 18.3396 9.37332C17.9958 8.54037 17.4908 7.78357 16.8536 7.14639C16.2164 6.50922 15.4596 6.00422 14.6267 5.66042C13.7937 5.31662 12.9011 5.14078 12 5.14303C11.0989 5.14078 10.2062 5.31662 9.37325 5.66042C8.54031 6.00422 7.78351 6.50922 7.14633 7.14639C6.50916 7.78357 6.00416 8.54037 5.66036 9.37332C5.31655 10.2063 5.14072 11.0989 5.14297 12C5.14072 12.9011 5.31655 13.7938 5.66036 14.6267C6.00416 15.4597 6.50916 16.2165 7.14633 16.8537C7.78351 17.4908 8.54031 17.9958 9.37325 18.3396C10.2062 18.6834 11.0989 18.8593 12 18.857ZM13.886 13.084C13.886 12.086 13.286 11.743 12.086 11.601C11.229 11.486 11.057 11.258 11.057 10.856C11.057 10.457 11.344 10.2 11.914 10.2C12.429 10.2 12.716 10.371 12.857 10.8C12.887 10.886 12.973 10.941 13.059 10.941H13.513C13.5392 10.9418 13.5654 10.9373 13.5899 10.9278C13.6144 10.9182 13.6367 10.9038 13.6555 10.8854C13.6742 10.867 13.6891 10.845 13.6992 10.8207C13.7092 10.7964 13.7142 10.7703 13.714 10.744V10.714C13.599 10.084 13.084 9.48403 12.429 9.42803V8.79803C12.429 8.68303 12.343 8.59703 12.201 8.57103H11.824C11.709 8.57103 11.601 8.65703 11.572 8.79803V9.42803C10.714 9.54403 10.144 10.2 10.144 10.916C10.144 11.858 10.714 12.227 11.914 12.373C12.716 12.514 12.973 12.686 12.973 13.144C12.973 13.598 12.57 13.916 12.03 13.916C11.284 13.916 11.027 13.598 10.942 13.17C10.916 13.058 10.83 12.998 10.744 12.998H10.256C10.2296 12.9977 10.2034 13.0028 10.1791 13.0129C10.1547 13.023 10.1327 13.038 10.1142 13.0569C10.0958 13.0758 10.0814 13.0982 10.0719 13.1228C10.0624 13.1474 10.058 13.1737 10.059 13.2V13.23C10.17 13.941 10.629 14.43 11.572 14.571V15.206C11.572 15.321 11.657 15.398 11.799 15.428H12.21C12.321 15.428 12.399 15.351 12.429 15.206V14.571C13.286 14.43 13.886 13.856 13.886 13.084ZM9.11397 15.22C9.52897 15.6 10.014 15.894 10.543 16.085C10.629 16.145 10.714 16.257 10.714 16.342V16.745C10.714 16.801 10.714 16.831 10.684 16.856C10.659 16.972 10.543 17.028 10.427 16.972C9.38718 16.6409 8.47967 15.9876 7.83568 15.1067C7.19168 14.2257 6.84459 13.1628 6.84459 12.0715C6.84459 10.9803 7.19168 9.91734 7.83568 9.03639C8.47967 8.15544 9.38718 7.50216 10.427 7.17103C10.457 7.14503 10.513 7.14503 10.543 7.14503C10.659 7.17103 10.714 7.25603 10.714 7.37203V7.77103C10.714 7.91603 10.659 8.00203 10.543 8.05803C9.95859 8.2687 9.42778 8.60551 8.98827 9.0445C8.54876 9.48349 8.21133 10.0139 7.99997 10.598C7.70532 11.3917 7.65383 12.2551 7.85207 13.0782C8.05031 13.9012 8.48928 14.6466 9.11297 15.219M13.315 7.28503C13.34 7.17003 13.456 7.11403 13.572 7.17003C14.3574 7.42567 15.0704 7.86508 15.6519 8.45174C16.2333 9.03839 16.6664 9.75535 16.915 10.543C17.1202 11.1864 17.1965 11.864 17.1396 12.5369C17.0826 13.2098 16.8936 13.8649 16.5831 14.4647C16.2727 15.0644 15.8471 15.5971 15.3305 16.0321C14.814 16.4672 14.2168 16.7961 13.573 17C13.543 17.026 13.487 17.026 13.457 17.026C13.341 17 13.286 16.915 13.286 16.799V16.4C13.286 16.255 13.341 16.169 13.457 16.113C14.0413 15.9023 14.5721 15.5655 15.0117 15.1266C15.4512 14.6876 15.7886 14.1572 16 13.573C16.1959 13.0461 16.2856 12.4856 16.2637 11.9238C16.2418 11.3621 16.1088 10.8102 15.8725 10.3002C15.6361 9.79008 15.3011 9.33188 14.8867 8.95202C14.4722 8.57216 13.9867 8.27817 13.458 8.08703C13.372 8.02703 13.287 7.91503 13.287 7.80003V7.40003C13.287 7.34003 13.287 7.31403 13.317 7.28403" fill="#2775CA"/>
</svg>
